<svg id="Layer_1" data-name="Layer 1" xmlns="http://www.w3.org/2000/svg" viewBox="0 0 372 82"><defs><style>.cls-1,.cls-2{fill:#fff;}.cls-1{stroke:#fff;}.cls-1,.cls-3{stroke-miterlimit:10;stroke-width:0.5px;}.cls-3,.cls-4{fill:#0fd1b5;}.cls-3{stroke:#0fd1b5;}</style></defs><title>bonito_logo</title><path class="cls-1" d="M74.8,60.42h0A15.32,15.32,0,0,0,59.53,45.15h0L52,45.06a2.94,2.94,0,0,0-2.79,2.09l-.77-.77a1,1,0,0,0-1.32-.08A5.47,5.47,0,0,0,45,50.67v9.06A15.31,15.31,0,0,0,60.24,75h5.35a9.61,9.61,0,0,0,1-.06c0,.12,0,.24,0,.36,0,3.09,3.54,5.42,3.69,5.52a1,1,0,0,0,.54.16,1,1,0,0,0,.55-.16c.15-.1,3.67-2.43,3.67-5.52v-.08h.08c3.1,0,5.42-3.53,5.52-3.68a1,1,0,0,0,0-1.09c-.1-.15-2.43-3.68-5.52-3.68a1.11,1.11,0,0,0-.36,0,8.94,8.94,0,0,0,.06-1ZM47.69,48.5l1.41,1.41a1,1,0,0,0,1.7-.53l.28-1.6a.87.87,0,0,1,.86-.72h0l7.56.09h0c.2,0,.39,0,.59,0V51.8a8.34,8.34,0,0,1-2.48,6,8.53,8.53,0,0,1-6,2.48H47c0-.19,0-.37,0-.55V50.67A3.44,3.44,0,0,1,47.69,48.5ZM75.14,68.79h0c1.35,0,2.71,1.32,3.44,2.23-.73.91-2.09,2.22-3.44,2.22a2.12,2.12,0,0,1-1-.22,1,1,0,0,0-1.09.22,1,1,0,0,0-.21,1.09,2.67,2.67,0,0,1,.21,1c0,1.35-1.31,2.7-2.21,3.44-.81-.66-2.24-2-2.24-3.44a2.85,2.85,0,0,1,.32-1.23A1,1,0,0,0,68.8,73a1,1,0,0,0-1.06-.31,6.59,6.59,0,0,1-2.15.33H60.24a13.3,13.3,0,0,1-13-10.73h4.42A10.45,10.45,0,0,0,62.1,51.8V47.41a13.32,13.32,0,0,1,10.7,13h0l0,5.33a7.46,7.46,0,0,1-.32,2.15,1,1,0,0,0,1.4,1.19A2.81,2.81,0,0,1,75.14,68.79Z"/><path class="cls-2" d="M54.43,51.17a1,1,0,0,1,1.62.68.94.94,0,0,1-.27.67,1,1,0,0,0,0,1.41,1,1,0,0,0,.7.3,1,1,0,0,0,.71-.3,2.85,2.85,0,0,0,.86-2.08,2.93,2.93,0,0,0-.86-2.09,3,3,0,0,0-4.18,0,1,1,0,0,0,0,1.41A1,1,0,0,0,54.43,51.17Z"/><path class="cls-1" d="M47,32.65l-.78.77a1,1,0,0,0-.08,1.33,5.52,5.52,0,0,0,4.37,2.13h9.06A15.33,15.33,0,0,0,74.84,21.59V16.23a8.89,8.89,0,0,0-.06-1h.36c3.09,0,5.42-3.53,5.52-3.68a1,1,0,0,0,0-1.09c-.1-.15-2.42-3.68-5.52-3.68h-.08V6.68c0-3.09-3.52-5.42-3.67-5.52a1,1,0,0,0-1.09,0c-.16.1-3.69,2.43-3.69,5.52,0,.12,0,.24,0,.36a9.07,9.07,0,0,0-1-.06h0L60.25,7h0A15.31,15.31,0,0,0,45,22.3h0l-.09,7.56A2.87,2.87,0,0,0,47,32.65Zm12.57,2.22H50.49a3.5,3.5,0,0,1-2.17-.75l1.42-1.41A1,1,0,0,0,49.2,31l-1.6-.29a.87.87,0,0,1-.72-.86L47,22.32h0c0-.2,0-.39,0-.59h4.63A8.47,8.47,0,0,1,60.1,30.2v4.64C59.92,34.85,59.74,34.87,59.55,34.87ZM60.26,9h0l5.33,0h0a7.05,7.05,0,0,1,2.15.33A1,1,0,0,0,68.8,9a1,1,0,0,0,.13-1.09,2.85,2.85,0,0,1-.32-1.22c0-1.35,1.32-2.71,2.23-3.45.8.66,2.22,2,2.22,3.44a2.67,2.67,0,0,1-.21,1A1,1,0,0,0,74.15,9a2.67,2.67,0,0,1,1-.21h0c1.35,0,2.71,1.31,3.44,2.22-.73.91-2.09,2.23-3.44,2.23h0a2.81,2.81,0,0,1-1.22-.32,1,1,0,0,0-1.4,1.19,7.46,7.46,0,0,1,.32,2.15v5.35a13.33,13.33,0,0,1-10.74,13V30.2A10.45,10.45,0,0,0,51.63,19.72h-4.4A13.31,13.31,0,0,1,60.26,9Z"/><path class="cls-2" d="M49.58,24.63a3,3,0,0,0,0,4.18,1,1,0,0,0,1.41,0,1,1,0,0,0,0-1.41,1,1,0,0,1,1.35-1.35,1,1,0,0,0,1.42-1.42A3,3,0,0,0,49.58,24.63Z"/><path class="cls-1" d="M6.51,15.21h.35a8.94,8.94,0,0,0-.05,1l0,5.34h0A15.31,15.31,0,0,0,22.12,36.85h0l7.57.09h0a2.86,2.86,0,0,0,2.77-2.09l.78.77a1,1,0,0,0,1.32.08,5.52,5.52,0,0,0,2.13-4.37V22.27A15.3,15.3,0,0,0,21.41,7H16.05A8.89,8.89,0,0,0,15,7c0-.12,0-.24,0-.36,0-3.09-3.53-5.42-3.68-5.52a1,1,0,0,0-1.09,0c-.15.1-3.68,2.43-3.68,5.52v.08H6.5c-3.09,0-5.42,3.53-5.52,3.68a1,1,0,0,0,0,1.09C1.08,11.68,3.41,15.21,6.51,15.21ZM34,33.5l-1.42-1.41a1,1,0,0,0-1.69.53l-.28,1.6a.91.91,0,0,1-.87.72l-7.55-.09h0l-.6,0V30.2A8.47,8.47,0,0,1,30,21.72h4.65c0,.19,0,.37,0,.55v9.07A3.49,3.49,0,0,1,34,33.5ZM6.5,8.76h0a2.47,2.47,0,0,1,1,.22,1,1,0,0,0,1.09-.22A1,1,0,0,0,8.8,7.67a2.51,2.51,0,0,1-.22-1c0-1.35,1.31-2.7,2.22-3.44.81.66,2.23,2,2.23,3.44a2.68,2.68,0,0,1-.32,1.23A1,1,0,0,0,12.85,9a1,1,0,0,0,1.05.31A7.15,7.15,0,0,1,16.05,9h5.36a13.31,13.31,0,0,1,13,10.73H30A10.46,10.46,0,0,0,19.54,30.2v4.39a13.31,13.31,0,0,1-10.69-13h0l0-5.33a7.14,7.14,0,0,1,.32-2.15,1,1,0,0,0-1.4-1.19,2.81,2.81,0,0,1-1.22.32h0c-1.35,0-2.71-1.32-3.45-2.23C3.8,10.07,5.15,8.76,6.5,8.76Z"/><path class="cls-2" d="M27.22,30.83a1,1,0,0,1-1.63-.68,1,1,0,0,1,.28-.67,1,1,0,0,0-1.41-1.41,2.9,2.9,0,0,0-.87,2.08,2.95,2.95,0,0,0,5,2.09,1,1,0,0,0-1.41-1.41Z"/><path class="cls-3" d="M6.5,75.24h.08v.08c0,3.09,3.53,5.42,3.68,5.52a1,1,0,0,0,1.09,0c.15-.1,3.68-2.43,3.68-5.52,0-.12,0-.24,0-.36a8.94,8.94,0,0,0,1,.06h0l5.33,0h0A15.32,15.32,0,0,0,36.68,59.7h0l.09-7.56a2.89,2.89,0,0,0-2.1-2.79l.77-.77a1,1,0,0,0,.08-1.33,5.52,5.52,0,0,0-4.36-2.13H22.09A15.31,15.31,0,0,0,6.81,60.41v5.36a8.88,8.88,0,0,0,.05,1H6.51c-3.1,0-5.43,3.53-5.53,3.68a1,1,0,0,0,0,1.09C1.08,71.71,3.41,75.24,6.5,75.24ZM22.1,47.13h9.06a3.52,3.52,0,0,1,2.17.75l-1.42,1.41A1,1,0,0,0,32.44,51l1.6.29a.88.88,0,0,1,.73.86l-.09,7.56h0c0,.2,0,.39,0,.59H30a8.47,8.47,0,0,1-8.47-8.48V47.16C21.73,47.15,21.91,47.13,22.1,47.13ZM6.51,68.79h0a2.81,2.81,0,0,1,1.22.32,1,1,0,0,0,1.4-1.19,7.14,7.14,0,0,1-.32-2.15V60.42a13.32,13.32,0,0,1,10.73-13V51.8A10.46,10.46,0,0,0,30,62.28h4.41A13.33,13.33,0,0,1,21.39,73h0l-5.32,0h0a7.15,7.15,0,0,1-2.15-.33,1,1,0,0,0-1.19,1.4A2.72,2.72,0,0,1,13,75.32c0,1.34-1.31,2.7-2.22,3.44-.81-.66-2.23-2-2.23-3.44a2.7,2.7,0,0,1,.22-1A1,1,0,0,0,7.49,73a2.63,2.63,0,0,1-1,.21h0c-1.35,0-2.7-1.31-3.44-2.22C3.8,70.11,5.16,68.79,6.51,68.79Z"/><path class="cls-4" d="M30,58.23a3,3,0,0,0,2.09-5,1,1,0,0,0-1.42,0,1,1,0,0,0,0,1.41A1,1,0,1,1,29.3,56a1,1,0,0,0-1.41,0,1,1,0,0,0,0,1.42A3,3,0,0,0,30,58.23Z"/><path class="cls-2" d="M117.18,14.41h6.53c10.08,0,19.6,2.63,19.6,14.7,0,3.9-2.13,8.45-5.75,10.15v.14c6.32,1.14,10.72,7.32,10.72,13.56,0,10.72-9.16,15-18.6,15h-12.5Zm6.67,23.71h1.71c6.32,0,11.5-1.27,11.5-8.94S132,20.37,125.7,20.37h-1.85Zm0,23.86H129c6.17,0,12.63-1.85,12.63-9.44s-7.66-9.09-13.63-9.09h-4.12Z"/><path class="cls-2" d="M208.06,41.18a28,28,0,0,1-56.09,0,28,28,0,0,1,56.09,0Zm-6.67,0c0-11.79-8.81-21.66-21.38-21.66s-21.37,9.87-21.37,21.66a21.38,21.38,0,1,0,42.75,0Z"/><path class="cls-2" d="M213.88,11.85,254.07,54V14.41h6.67V70.15L220.55,28v39.9h-6.67Z"/><path class="cls-2" d="M276.72,67.94H270V14.41h6.68Z"/><path class="cls-2" d="M301.14,67.94h-6.68V20.52h-12.7V14.41h32.09v6.11H301.14Z"/><path class="cls-2" d="M371.43,41.18a28,28,0,0,1-56.09,0,28,28,0,0,1,56.09,0Zm-6.68,0c0-11.79-8.8-21.66-21.37-21.66S322,29.39,322,41.18a21.37,21.37,0,1,0,42.74,0Z"/></svg>